999
FreeCAD v0.19 24291 (Git)
  0
SECTION
  2
HEADER
  9
$ACADVER
  1
AC1014
  9
$ACADMAINTVER
 70
     9
  9
$DWGCODEPAGE
  3
ANSI_1252
  9
$TEXTSTYLE
  7
STANDARD
  9
$DIMSTYLE
  2
STANDARD
  9
$DIMTXSTY
  7
STANDARD
  9
$CMLSTYLE
  2
STANDARD
  9
$PEXTMAX
 10
50
 20
50
 30
50
  9
$PEXTMIN
 10
0
 20
0
 30
0
  9
$HANDSEED
  5
FFFF
  0
ENDSEC
  0
SECTION
  2
CLASSES
  0
CLASS
  1
ACDBDICTIONARYWDFLT
  2
AcDbDictionaryWithDefault
  3
ObjectDBX Classes
 90
        0
280
     0
281
     0
  0
CLASS
  1
XRECORD
  2
AcDbXrecord
  3
ObjectDBX Classes
 90
        0
280
     0
281
     0
  0
CLASS
  1
LWPOLYLINE
  2
AcDbPolyline
  3
ObjectDBX Classes
 90
        0
280
     0
281
     1
  0
ENDSEC
  0
SECTION
  2
TABLES
  0
TABLE
  2
VPORT
  5
20
330
0
100
AcDbSymbolTable
 70
     1
  0
VPORT
  5
21
330
20
100
AcDbSymbolTableRecord
100
AcDbViewportTableRecord
  2
*ACTIVE
 70
     0
  0
ENDTAB
  0
TABLE
  2
LTYPE
  5
22
330
0
100
AcDbSymbolTable
 70
     1
  0
LTYPE
  5
23
330
21
100
AcDbSymbolTableRecord
100
AcDbLinetypeTableRecord
  2
BYBLOCK
 70
     0
  3

 72
    65
 73
     0
 40
0.0
  0
LTYPE
  5
24
330
21
100
AcDbSymbolTableRecord
100
AcDbLinetypeTableRecord
  2
BYLAYER
 70
     0
  3

 72
    65
 73
     0
 40
0.0
  0
LTYPE
  5
25
330
21
100
AcDbSymbolTableRecord
100
AcDbLinetypeTableRecord
  2
CONTINUOUS
 70
     0
  3
Solid line
 72
    65
 73
     0
 40
0.0
  0
ENDTAB
  0
TABLE
  2
LAYER
  5
AAC
330
0
100
AcDbSymbolTable
 70
16
  0
LAYER
  5
AAD
330
AAC
100
AcDbSymbolTableRecord
100
AcDbLayerTableRecord
  2
0
 70
   0
 62
   7
  6
CONTINUOUS
  0
LAYER
  5
AAE
330
AAC
100
AcDbSymbolTableRecord
100
AcDbLayerTableRecord
  2
View001
 70
    0
 62
    7
  6
CONTINUOUS
  0
LAYER
  5
AAF
330
AAC
100
AcDbSymbolTableRecord
100
AcDbLayerTableRecord
  2
Dimension008
 70
    0
 62
    7
  6
CONTINUOUS
  0
LAYER
  5
AB0
330
AAC
100
AcDbSymbolTableRecord
100
AcDbLayerTableRecord
  2
Dimension009
 70
    0
 62
    7
  6
CONTINUOUS
  0
LAYER
  5
AB1
330
AAC
100
AcDbSymbolTableRecord
100
AcDbLayerTableRecord
  2
View
 70
    0
 62
    7
  6
CONTINUOUS
  0
LAYER
  5
AB2
330
AAC
100
AcDbSymbolTableRecord
100
AcDbLayerTableRecord
  2
Dimension
 70
    0
 62
    7
  6
CONTINUOUS
  0
LAYER
  5
AB3
330
AAC
100
AcDbSymbolTableRecord
100
AcDbLayerTableRecord
  2
Dimension010
 70
    0
 62
    7
  6
CONTINUOUS
  0
LAYER
  5
AB4
330
AAC
100
AcDbSymbolTableRecord
100
AcDbLayerTableRecord
  2
Dimension011
 70
    0
 62
    7
  6
CONTINUOUS
  0
LAYER
  5
AB5
330
AAC
100
AcDbSymbolTableRecord
100
AcDbLayerTableRecord
  2
Dimension012
 70
    0
 62
    7
  6
CONTINUOUS
  0
LAYER
  5
AB6
330
AAC
100
AcDbSymbolTableRecord
100
AcDbLayerTableRecord
  2
Dimension013
 70
    0
 62
    7
  6
CONTINUOUS
  0
LAYER
  5
AB7
330
AAC
100
AcDbSymbolTableRecord
100
AcDbLayerTableRecord
  2
Dimension014
 70
    0
 62
    7
  6
CONTINUOUS
  0
LAYER
  5
AB8
330
AAC
100
AcDbSymbolTableRecord
100
AcDbLayerTableRecord
  2
Dimension015
 70
    0
 62
    7
  6
CONTINUOUS
  0
LAYER
  5
AB9
330
AAC
100
AcDbSymbolTableRecord
100
AcDbLayerTableRecord
  2
Dimension016
 70
    0
 62
    7
  6
CONTINUOUS
  0
LAYER
  5
ABA
330
AAC
100
AcDbSymbolTableRecord
100
AcDbLayerTableRecord
  2
Dimension017
 70
    0
 62
    7
  6
CONTINUOUS
  0
LAYER
  5
ABB
330
AAC
100
AcDbSymbolTableRecord
100
AcDbLayerTableRecord
  2
Dimension018
 70
    0
 62
    7
  6
CONTINUOUS
  0
LAYER
  5
ABC
330
AAC
100
AcDbSymbolTableRecord
100
AcDbLayerTableRecord
  2
Dimension019
 70
    0
 62
    7
  6
CONTINUOUS
  0
ENDTAB
  0
TABLE
  2
STYLE
  5
70
330
0
100
AcDbSymbolTable
 70
     2
  0
STYLE
  5
71
330
70
100
AcDbSymbolTableRecord
100
AcDbTextStyleTableRecord
  2
STANDARD
 70
     0
 40
0.0
 41
1.0
 50
0.0
 71
     0
 42
2.5
  3
arial.ttf
  4

  0
STYLE
  5
72
330
70
100
AcDbSymbolTableRecord
100
AcDbTextStyleTableRecord
  2
ANNOTATIVE
 70
     0
 40
0.0
 41
1.0
 50
0.0
 71
     0
 42
2.5
  3
arial.ttf
  4

  0
ENDTAB
  0
TABLE
  2
VIEW
  5
73
330
0
100
AcDbSymbolTable
 70
     0
  0
ENDTAB
  0
TABLE
  2
UCS
  5
74
330
0
100
AcDbSymbolTable
 70
     0
  0
ENDTAB
  0
TABLE
  2
APPID
  5
75
330
0
100
AcDbSymbolTable
 70
     2
  0
APPID
  5
76
330
75
100
AcDbSymbolTableRecord
100
AcDbRegAppTableRecord
  2
ACAD
 70
     0
  0
APPID
  5
77
330
75
100
AcDbSymbolTableRecord
100
AcDbRegAppTableRecord
  2
ACADANNOTATIVE
 70
     0
  0
ENDTAB
  0
TABLE
  2
DIMSTYLE
  5
78
330
0
100
AcDbSymbolTable
 70
     2
  0
DIMSTYLE
105
79
330
78
100
AcDbSymbolTableRecord
100
AcDbDimStyleTableRecord
  2
STANDARD
 70
     0
  3

  4

  5

  6

  7

 40
0.0
 41
2.5
 42
0.625
 43
3.75
 44
1.25
 45
0.0
 46
0.0
 47
0.0
 48
0.0
140
2.5
141
2.5
142
0.0
143
0.03937007874016
144
1.0
145
0.0
146
1.0
147
0.625
 71
     0
 72
     0
 73
     0
 74
     0
 75
     0
 76
     0
 77
     1
 78
     8
170
     0
171
     3
172
     1
173
     0
174
     0
175
     0
176
     0
177
     0
178
     0
270
     2
271
     2
272
     2
273
     2
274
     3
340
71
275
     0
280
     0
281
     0
282
     0
283
     0
284
     8
285
     0
286
     0
287
     3
288
     0
  0
ENDTAB
  0
TABLE
  2
BLOCK_RECORD
  5
A01
330
0
100
AcDbSymbolTable
  70
5
  0
BLOCK_RECORD
  5
A02
330
A01
100
AcDbSymbolTableRecord
100
AcDbBlockTableRecord
  2
*MODEL_SPACE
  0
BLOCK_RECORD
  5
A03
330
A01
100
AcDbSymbolTableRecord
100
AcDbBlockTableRecord
  2
*PAPER_SPACE
  0
BLOCK_RECORD
  5
A0D
330
A01
100
AcDbSymbolTableRecord
100
AcDbBlockTableRecord
  2
*Dimension008
  0
BLOCK_RECORD
  5
A17
330
A01
100
AcDbSymbolTableRecord
100
AcDbBlockTableRecord
  2
*Dimension009
  0
BLOCK_RECORD
  5
A43
330
A01
100
AcDbSymbolTableRecord
100
AcDbBlockTableRecord
  2
*Dimension
  0
BLOCK_RECORD
  5
A4D
330
A01
100
AcDbSymbolTableRecord
100
AcDbBlockTableRecord
  2
*Dimension010
  0
BLOCK_RECORD
  5
A57
330
A01
100
AcDbSymbolTableRecord
100
AcDbBlockTableRecord
  2
*Dimension011
  0
BLOCK_RECORD
  5
A61
330
A01
100
AcDbSymbolTableRecord
100
AcDbBlockTableRecord
  2
*Dimension012
  0
BLOCK_RECORD
  5
A6B
330
A01
100
AcDbSymbolTableRecord
100
AcDbBlockTableRecord
  2
*Dimension013
  0
BLOCK_RECORD
  5
A75
330
A01
100
AcDbSymbolTableRecord
100
AcDbBlockTableRecord
  2
*Dimension014
  0
BLOCK_RECORD
  5
A7D
330
A01
100
AcDbSymbolTableRecord
100
AcDbBlockTableRecord
  2
*Dimension015
  0
BLOCK_RECORD
  5
A85
330
A01
100
AcDbSymbolTableRecord
100
AcDbBlockTableRecord
  2
*Dimension016
  0
BLOCK_RECORD
  5
A8F
330
A01
100
AcDbSymbolTableRecord
100
AcDbBlockTableRecord
  2
*Dimension017
  0
BLOCK_RECORD
  5
A99
330
A01
100
AcDbSymbolTableRecord
100
AcDbBlockTableRecord
  2
*Dimension018
  0
BLOCK_RECORD
  5
AA3
330
A01
100
AcDbSymbolTableRecord
100
AcDbBlockTableRecord
  2
*Dimension019
  0
ENDTAB
  0
ENDSEC
  0
SECTION
  2
BLOCKS
  0
BLOCK
  5
A04
330
A02
100
AcDbEntity
  8
0
100
AcDbBlockBegin
  2
*MODEL_SPACE
 70
   0
 10
0
 20
0
 30
0
  3
*MODEL_SPACE
  1
 
  0
ENDBLK
  5
A05
330
A02
100
AcDbEntity
  8
0
100
AcDbBlockEnd
  0
BLOCK
  5
A06
330
A03
100
AcDbEntity
 67
1
  8
0
100
AcDbBlockBegin
  2
*PAPER_SPACE
 70
   0
 10
0
 20
0
 30
0
  3
*PAPER_SPACE
  1
 
  0
ENDBLK
  5
A07
330
A03
100
AcDbEntity
 67
    1
  8
0
100
AcDbBlockEnd
  0
BLOCK
  5
A0E
330
A0D
100
AcDbEntity
  8
Dimension008
100
AcDbBlockBegin
  2
*Dimension008
 70
   1
 10
0
 20
0
 30
0
  3
*Dimension008
  1
 
  0
LINE
  5
A0F
330
A0D
100
AcDbEntity
  8
Dimension008
100
AcDbLine
 10
116.957
 20
86.144
 30
0
 11
116.957
 21
106.261
 31
0
  0
LINE
  5
A10
330
A0D
100
AcDbEntity
  8
Dimension008
100
AcDbLine
 10
177.129
 20
86.144
 30
0
 11
177.129
 21
106.261
 31
0
  0
LINE
  5
A11
330
A0D
100
AcDbEntity
  8
Dimension008
100
AcDbLine
 10
177.129
 20
106.261
 30
0
 11
116.957
 21
106.261
 31
0
  0
TEXT
  5
A12
330
A0D
100
AcDbEntity
  8
Dimension008
100
AcDbText
 10
145.404
 20
101.261
 30
0
 40
3.5
  1
 mm
  7
STANDARD
 72
1
 11
145.404
 21
106.261
 31
0
100
AcDbText
  0
SOLID
  5
A13
330
A0D
100
AcDbEntity
  8
0
 62
     0
100
AcDbTrace
 10
182.129
 20
106.678
 30
0
 11
182.129
 21
105.844
 31
0
 12
177.129
 22
106.261
 32
0
 13
177.129
 23
106.261
 33
0
  0
SOLID
  5
A14
330
A0D
100
AcDbEntity
  8
0
 62
     0
100
AcDbTrace
 10
111.957
 20
106.678
 30
0
 11
111.957
 21
105.844
 31
0
 12
116.957
 22
106.261
 32
0
 13
116.957
 23
106.261
 33
0
  0
ENDBLK
  5
A15
330
A0D
100
AcDbEntity
  8
Dimension008
100
AcDbBlockEnd
  0
BLOCK
  5
A18
330
A17
100
AcDbEntity
  8
Dimension009
100
AcDbBlockBegin
  2
*Dimension009
 70
   1
 10
0
 20
0
 30
0
  3
*Dimension009
  1
 
  0
LINE
  5
A19
330
A17
100
AcDbEntity
  8
Dimension009
100
AcDbLine
 10
177.129
 20
80.144
 30
0
 11
197.064
 21
80.144
 31
0
  0
LINE
  5
A1A
330
A17
100
AcDbEntity
  8
Dimension009
100
AcDbLine
 10
177.129
 20
86.144
 30
0
 11
197.064
 21
86.144
 31
0
  0
LINE
  5
A1B
330
A17
100
AcDbEntity
  8
Dimension009
100
AcDbLine
 10
197.064
 20
86.144
 30
0
 11
197.064
 21
80.144
 31
0
  0
TEXT
  5
A1C
330
A17
100
AcDbEntity
  8
Dimension009
100
AcDbText
 10
192.064
 20
74.5837
 30
0
 40
3.5
  1
 mm
  7
STANDARD
 72
1
 11
197.064
 21
74.5837
 31
0
100
AcDbText
  0
SOLID
  5
A1D
330
A17
100
AcDbEntity
  8
0
 62
     0
100
AcDbTrace
 10
197.48
 20
91.144
 30
0
 11
196.647
 21
91.144
 31
0
 12
197.064
 22
86.144
 32
0
 13
197.064
 23
86.144
 33
0
  0
SOLID
  5
A1E
330
A17
100
AcDbEntity
  8
0
 62
     0
100
AcDbTrace
 10
197.48
 20
75.144
 30
0
 11
196.647
 21
75.144
 31
0
 12
197.064
 22
80.144
 32
0
 13
197.064
 23
80.144
 33
0
  0
ENDBLK
  5
A1F
330
A17
100
AcDbEntity
  8
Dimension009
100
AcDbBlockEnd
  0
BLOCK
  5
A44
330
A43
100
AcDbEntity
  8
Dimension
100
AcDbBlockBegin
  2
*Dimension
 70
   1
 10
0
 20
0
 30
0
  3
*Dimension
  1
 
  0
LINE
  5
A45
330
A43
100
AcDbEntity
  8
Dimension
100
AcDbLine
 10
286.365
 20
135.473
 30
0
 11
286.365
 21
114.067
 31
0
  0
LINE
  5
A46
330
A43
100
AcDbEntity
  8
Dimension
100
AcDbLine
 10
11.3646
 20
135.473
 30
0
 11
11.3646
 21
114.067
 31
0
  0
LINE
  5
A47
330
A43
100
AcDbEntity
  8
Dimension
100
AcDbLine
 10
11.3646
 20
114.067
 30
0
 11
286.365
 21
114.067
 31
0
  0
TEXT
  5
A48
330
A43
100
AcDbEntity
  8
Dimension
100
AcDbText
 10
148.318
 20
119.067
 30
0
 40
3.5
  1
 mm
  7
STANDARD
 72
1
 11
148.318
 21
114.067
 31
0
100
AcDbText
  0
SOLID
  5
A49
330
A43
100
AcDbEntity
  8
0
 62
     0
100
AcDbTrace
 10
6.36458
 20
113.65
 30
0
 11
6.36458
 21
114.483
 31
0
 12
11.3646
 22
114.067
 32
0
 13
11.3646
 23
114.067
 33
0
  0
SOLID
  5
A4A
330
A43
100
AcDbEntity
  8
0
 62
     0
100
AcDbTrace
 10
291.365
 20
113.65
 30
0
 11
291.365
 21
114.483
 31
0
 12
286.365
 22
114.067
 32
0
 13
286.365
 23
114.067
 33
0
  0
ENDBLK
  5
A4B
330
A43
100
AcDbEntity
  8
Dimension
100
AcDbBlockEnd
  0
BLOCK
  5
A4E
330
A4D
100
AcDbEntity
  8
Dimension010
100
AcDbBlockBegin
  2
*Dimension010
 70
   1
 10
0
 20
0
 30
0
  3
*Dimension010
  1
 
  0
LINE
  5
A4F
330
A4D
100
AcDbEntity
  8
Dimension010
100
AcDbLine
 10
32.8646
 20
148.173
 30
0
 11
32.8646
 21
185.1
 31
0
  0
LINE
  5
A50
330
A4D
100
AcDbEntity
  8
Dimension010
100
AcDbLine
 10
11.3646
 20
148.173
 30
0
 11
11.3646
 21
185.1
 31
0
  0
LINE
  5
A51
330
A4D
100
AcDbEntity
  8
Dimension010
100
AcDbLine
 10
11.3646
 20
185.1
 30
0
 11
32.8646
 21
185.1
 31
0
  0
TEXT
  5
A52
330
A4D
100
AcDbEntity
  8
Dimension010
100
AcDbText
 10
22.3469
 20
190.1
 30
0
 40
3.5
  1
 mm
  7
STANDARD
 72
1
 11
22.3469
 21
185.1
 31
0
100
AcDbText
  0
SOLID
  5
A53
330
A4D
100
AcDbEntity
  8
0
 62
     0
100
AcDbTrace
 10
6.36458
 20
185.517
 30
0
 11
6.36458
 21
184.683
 31
0
 12
11.3646
 22
185.1
 32
0
 13
11.3646
 23
185.1
 33
0
  0
SOLID
  5
A54
330
A4D
100
AcDbEntity
  8
0
 62
     0
100
AcDbTrace
 10
37.8646
 20
185.517
 30
0
 11
37.8646
 21
184.683
 31
0
 12
32.8646
 22
185.1
 32
0
 13
32.8646
 23
185.1
 33
0
  0
ENDBLK
  5
A55
330
A4D
100
AcDbEntity
  8
Dimension010
100
AcDbBlockEnd
  0
BLOCK
  5
A58
330
A57
100
AcDbEntity
  8
Dimension011
100
AcDbBlockBegin
  2
*Dimension011
 70
   1
 10
0
 20
0
 30
0
  3
*Dimension011
  1
 
  0
LINE
  5
A59
330
A57
100
AcDbEntity
  8
Dimension011
100
AcDbLine
 10
286.365
 20
148.173
 30
0
 11
286.365
 21
167.053
 31
0
  0
LINE
  5
A5A
330
A57
100
AcDbEntity
  8
Dimension011
100
AcDbLine
 10
267.365
 20
148.173
 30
0
 11
267.365
 21
167.053
 31
0
  0
LINE
  5
A5B
330
A57
100
AcDbEntity
  8
Dimension011
100
AcDbLine
 10
267.365
 20
167.053
 30
0
 11
286.365
 21
167.053
 31
0
  0
TEXT
  5
A5C
330
A57
100
AcDbEntity
  8
Dimension011
100
AcDbText
 10
275.953
 20
172.053
 30
0
 40
3.5
  1
 mm
  7
STANDARD
 72
1
 11
275.953
 21
167.053
 31
0
100
AcDbText
  0
SOLID
  5
A5D
330
A57
100
AcDbEntity
  8
0
 62
     0
100
AcDbTrace
 10
262.365
 20
167.47
 30
0
 11
262.365
 21
166.636
 31
0
 12
267.365
 22
167.053
 32
0
 13
267.365
 23
167.053
 33
0
  0
SOLID
  5
A5E
330
A57
100
AcDbEntity
  8
0
 62
     0
100
AcDbTrace
 10
291.365
 20
167.47
 30
0
 11
291.365
 21
166.636
 31
0
 12
286.365
 22
167.053
 32
0
 13
286.365
 23
167.053
 33
0
  0
ENDBLK
  5
A5F
330
A57
100
AcDbEntity
  8
Dimension011
100
AcDbBlockEnd
  0
BLOCK
  5
A62
330
A61
100
AcDbEntity
  8
Dimension012
100
AcDbBlockBegin
  2
*Dimension012
 70
   1
 10
0
 20
0
 30
0
  3
*Dimension012
  1
 
  0
LINE
  5
A63
330
A61
100
AcDbEntity
  8
Dimension012
100
AcDbLine
 10
32.8646
 20
148.173
 30
0
 11
32.8646
 21
186.35
 31
0
  0
LINE
  5
A64
330
A61
100
AcDbEntity
  8
Dimension012
100
AcDbLine
 10
48.9524
 20
148.173
 30
0
 11
48.9524
 21
186.35
 31
0
  0
LINE
  5
A65
330
A61
100
AcDbEntity
  8
Dimension012
100
AcDbLine
 10
48.9524
 20
186.35
 30
0
 11
32.8646
 21
186.35
 31
0
  0
TEXT
  5
A66
330
A61
100
AcDbEntity
  8
Dimension012
100
AcDbText
 10
40.3683
 20
181.35
 30
0
 40
3.5
  1
 mm
  7
STANDARD
 72
1
 11
40.3683
 21
186.35
 31
0
100
AcDbText
  0
SOLID
  5
A67
330
A61
100
AcDbEntity
  8
0
 62
     0
100
AcDbTrace
 10
53.9524
 20
186.767
 30
0
 11
53.9524
 21
185.933
 31
0
 12
48.9524
 22
186.35
 32
0
 13
48.9524
 23
186.35
 33
0
  0
SOLID
  5
A68
330
A61
100
AcDbEntity
  8
0
 62
     0
100
AcDbTrace
 10
27.8646
 20
186.767
 30
0
 11
27.8646
 21
185.933
 31
0
 12
32.8646
 22
186.35
 32
0
 13
32.8646
 23
186.35
 33
0
  0
ENDBLK
  5
A69
330
A61
100
AcDbEntity
  8
Dimension012
100
AcDbBlockEnd
  0
BLOCK
  5
A6C
330
A6B
100
AcDbEntity
  8
Dimension013
100
AcDbBlockBegin
  2
*Dimension013
 70
   1
 10
0
 20
0
 30
0
  3
*Dimension013
  1
 
  0
LINE
  5
A6D
330
A6B
100
AcDbEntity
  8
Dimension013
100
AcDbLine
 10
261.902
 20
142.173
 30
0
 11
261.902
 21
171.053
 31
0
  0
LINE
  5
A6E
330
A6B
100
AcDbEntity
  8
Dimension013
100
AcDbLine
 10
267.365
 20
142.173
 30
0
 11
267.365
 21
171.053
 31
0
  0
LINE
  5
A6F
330
A6B
100
AcDbEntity
  8
Dimension013
100
AcDbLine
 10
267.365
 20
171.053
 30
0
 11
261.902
 21
171.053
 31
0
  0
TEXT
  5
A70
330
A6B
100
AcDbEntity
  8
Dimension013
100
AcDbText
 10
252.534
 20
166.053
 30
0
 40
3.5
  1
 mm
  7
STANDARD
 72
1
 11
252.534
 21
171.053
 31
0
100
AcDbText
  0
SOLID
  5
A71
330
A6B
100
AcDbEntity
  8
0
 62
     0
100
AcDbTrace
 10
272.365
 20
171.47
 30
0
 11
272.365
 21
170.636
 31
0
 12
267.365
 22
171.053
 32
0
 13
267.365
 23
171.053
 33
0
  0
SOLID
  5
A72
330
A6B
100
AcDbEntity
  8
0
 62
     0
100
AcDbTrace
 10
256.902
 20
171.47
 30
0
 11
256.902
 21
170.636
 31
0
 12
261.902
 22
171.053
 32
0
 13
261.902
 23
171.053
 33
0
  0
ENDBLK
  5
A73
330
A6B
100
AcDbEntity
  8
Dimension013
100
AcDbBlockEnd
  0
BLOCK
  5
A76
330
A75
100
AcDbEntity
  8
Dimension014
100
AcDbBlockBegin
  2
*Dimension014
 70
   1
 10
0
 20
0
 30
0
  3
*Dimension014
  1
 
  0
LINE
  5
A77
330
A75
100
AcDbEntity
  8
Dimension014
100
AcDbLine
 10
20.3771
 20
141.823
 30
0
 11
15.6146
 21
141.823
 31
0
  0
TEXT
  5
A78
330
A75
100
AcDbEntity
  8
Dimension014
100
AcDbText
 10
22.901
 20
125.052
 30
0
 40
3.5
  1
⌀ mm
  7
STANDARD
 72
1
 11
22.901
 21
125.052
 31
0
100
AcDbText
  0
SOLID
  5
A79
330
A75
100
AcDbEntity
  8
0
 62
     0
100
AcDbTrace
 10
15.3771
 20
141.406
 30
0
 11
15.3771
 21
142.24
 31
0
 12
20.3771
 22
141.823
 32
0
 13
20.3771
 23
141.823
 33
0
  0
SOLID
  5
A7A
330
A75
100
AcDbEntity
  8
0
 62
     0
100
AcDbTrace
 10
20.6146
 20
141.406
 30
0
 11
20.6146
 21
142.24
 31
0
 12
15.6146
 22
141.823
 32
0
 13
15.6146
 23
141.823
 33
0
  0
ENDBLK
  5
A7B
330
A75
100
AcDbEntity
  8
Dimension014
100
AcDbBlockEnd
  0
BLOCK
  5
A7E
330
A7D
100
AcDbEntity
  8
Dimension015
100
AcDbBlockBegin
  2
*Dimension015
 70
   1
 10
0
 20
0
 30
0
  3
*Dimension015
  1
 
  0
LINE
  5
A7F
330
A7D
100
AcDbEntity
  8
Dimension015
100
AcDbLine
 10
281.215
 20
141.823
 30
0
 11
276.515
 21
141.823
 31
0
  0
TEXT
  5
A80
330
A7D
100
AcDbEntity
  8
Dimension015
100
AcDbText
 10
267.719
 20
126.146
 30
0
 40
3.5
  1
⌀ mm
  7
STANDARD
 72
1
 11
267.719
 21
126.146
 31
0
100
AcDbText
  0
SOLID
  5
A81
330
A7D
100
AcDbEntity
  8
0
 62
     0
100
AcDbTrace
 10
276.215
 20
141.406
 30
0
 11
276.215
 21
142.24
 31
0
 12
281.215
 22
141.823
 32
0
 13
281.215
 23
141.823
 33
0
  0
SOLID
  5
A82
330
A7D
100
AcDbEntity
  8
0
 62
     0
100
AcDbTrace
 10
281.515
 20
141.406
 30
0
 11
281.515
 21
142.24
 31
0
 12
276.515
 22
141.823
 32
0
 13
276.515
 23
141.823
 33
0
  0
ENDBLK
  5
A83
330
A7D
100
AcDbEntity
  8
Dimension015
100
AcDbBlockEnd
  0
BLOCK
  5
A86
330
A85
100
AcDbEntity
  8
Dimension016
100
AcDbBlockBegin
  2
*Dimension016
 70
   1
 10
0
 20
0
 30
0
  3
*Dimension016
  1
 
  0
LINE
  5
A87
330
A85
100
AcDbEntity
  8
Dimension016
100
AcDbLine
 10
32.8646
 20
141.923
 30
0
 11
28.85
 21
141.923
 31
0
  0
LINE
  5
A88
330
A85
100
AcDbEntity
  8
Dimension016
100
AcDbLine
 10
32.8646
 20
148.173
 30
0
 11
28.85
 21
148.173
 31
0
  0
LINE
  5
A89
330
A85
100
AcDbEntity
  8
Dimension016
100
AcDbLine
 10
28.85
 20
148.173
 30
0
 11
28.85
 21
141.923
 31
0
  0
TEXT
  5
A8A
330
A85
100
AcDbEntity
  8
Dimension016
100
AcDbText
 10
23.85
 20
163.667
 30
0
 40
3.5
  1
 mm
  7
STANDARD
 72
1
 11
28.85
 21
163.667
 31
0
100
AcDbText
  0
SOLID
  5
A8B
330
A85
100
AcDbEntity
  8
0
 62
     0
100
AcDbTrace
 10
28.4333
 20
153.173
 30
0
 11
29.2667
 21
153.173
 31
0
 12
28.85
 22
148.173
 32
0
 13
28.85
 23
148.173
 33
0
  0
SOLID
  5
A8C
330
A85
100
AcDbEntity
  8
0
 62
     0
100
AcDbTrace
 10
28.4333
 20
136.923
 30
0
 11
29.2667
 21
136.923
 31
0
 12
28.85
 22
141.923
 32
0
 13
28.85
 23
141.923
 33
0
  0
ENDBLK
  5
A8D
330
A85
100
AcDbEntity
  8
Dimension016
100
AcDbBlockEnd
  0
BLOCK
  5
A90
330
A8F
100
AcDbEntity
  8
Dimension017
100
AcDbBlockBegin
  2
*Dimension017
 70
   1
 10
0
 20
0
 30
0
  3
*Dimension017
  1
 
  0
LINE
  5
A91
330
A8F
100
AcDbEntity
  8
Dimension017
100
AcDbLine
 10
261.902
 20
148.173
 30
0
 11
247.652
 21
148.173
 31
0
  0
LINE
  5
A92
330
A8F
100
AcDbEntity
  8
Dimension017
100
AcDbLine
 10
261.902
 20
142.173
 30
0
 11
247.652
 21
142.173
 31
0
  0
LINE
  5
A93
330
A8F
100
AcDbEntity
  8
Dimension017
100
AcDbLine
 10
247.652
 20
142.173
 30
0
 11
247.652
 21
148.173
 31
0
  0
TEXT
  5
A94
330
A8F
100
AcDbEntity
  8
Dimension017
100
AcDbText
 10
252.652
 20
156.11
 30
0
 40
3.5
  1
 mm
  7
STANDARD
 72
1
 11
247.652
 21
156.11
 31
0
100
AcDbText
  0
SOLID
  5
A95
330
A8F
100
AcDbEntity
  8
0
 62
     0
100
AcDbTrace
 10
247.235
 20
137.173
 30
0
 11
248.069
 21
137.173
 31
0
 12
247.652
 22
142.173
 32
0
 13
247.652
 23
142.173
 33
0
  0
SOLID
  5
A96
330
A8F
100
AcDbEntity
  8
0
 62
     0
100
AcDbTrace
 10
247.235
 20
153.173
 30
0
 11
248.069
 21
153.173
 31
0
 12
247.652
 22
148.173
 32
0
 13
247.652
 23
148.173
 33
0
  0
ENDBLK
  5
A97
330
A8F
100
AcDbEntity
  8
Dimension017
100
AcDbBlockEnd
  0
BLOCK
  5
A9A
330
A99
100
AcDbEntity
  8
Dimension018
100
AcDbBlockBegin
  2
*Dimension018
 70
   1
 10
0
 20
0
 30
0
  3
*Dimension018
  1
 
  0
LINE
  5
A9B
330
A99
100
AcDbEntity
  8
Dimension018
100
AcDbLine
 10
77.5964
 20
141.923
 30
0
 11
77.5964
 21
174.707
 31
0
  0
LINE
  5
A9C
330
A99
100
AcDbEntity
  8
Dimension018
100
AcDbLine
 10
72.3339
 20
141.923
 30
0
 11
72.3339
 21
174.707
 31
0
  0
LINE
  5
A9D
330
A99
100
AcDbEntity
  8
Dimension018
100
AcDbLine
 10
72.3339
 20
174.707
 30
0
 11
77.5964
 21
174.707
 31
0
  0
TEXT
  5
A9E
330
A99
100
AcDbEntity
  8
Dimension018
100
AcDbText
 10
88.5047
 20
179.707
 30
0
 40
3.5
  1
 mm
  7
STANDARD
 72
1
 11
88.5047
 21
174.707
 31
0
100
AcDbText
  0
SOLID
  5
A9F
330
A99
100
AcDbEntity
  8
0
 62
     0
100
AcDbTrace
 10
67.3339
 20
175.124
 30
0
 11
67.3339
 21
174.291
 31
0
 12
72.3339
 22
174.707
 32
0
 13
72.3339
 23
174.707
 33
0
  0
SOLID
  5
AA0
330
A99
100
AcDbEntity
  8
0
 62
     0
100
AcDbTrace
 10
82.5964
 20
175.124
 30
0
 11
82.5964
 21
174.291
 31
0
 12
77.5964
 22
174.707
 32
0
 13
77.5964
 23
174.707
 33
0
  0
ENDBLK
  5
AA1
330
A99
100
AcDbEntity
  8
Dimension018
100
AcDbBlockEnd
  0
BLOCK
  5
AA4
330
AA3
100
AcDbEntity
  8
Dimension019
100
AcDbBlockBegin
  2
*Dimension019
 70
   1
 10
0
 20
0
 30
0
  3
*Dimension019
  1
 
  0
LINE
  5
AA5
330
AA3
100
AcDbEntity
  8
Dimension019
100
AcDbLine
 10
88.4217
 20
148.173
 30
0
 11
88.4217
 21
165.717
 31
0
  0
LINE
  5
AA6
330
AA3
100
AcDbEntity
  8
Dimension019
100
AcDbLine
 10
77.5964
 20
141.923
 30
0
 11
77.5964
 21
165.717
 31
0
  0
LINE
  5
AA7
330
AA3
100
AcDbEntity
  8
Dimension019
100
AcDbLine
 10
77.5964
 20
165.717
 30
0
 11
88.4217
 21
165.717
 31
0
  0
TEXT
  5
AA8
330
AA3
100
AcDbEntity
  8
Dimension019
100
AcDbText
 10
99.9188
 20
170.047
 30
0
 40
3.5
  1
 mm
  7
STANDARD
 72
1
 11
97.4188
 21
165.717
 31
0
100
AcDbText
  0
SOLID
  5
AA9
330
AA3
100
AcDbEntity
  8
0
 62
     0
100
AcDbTrace
 10
72.5964
 20
166.133
 30
0
 11
72.5964
 21
165.3
 31
0
 12
77.5964
 22
165.717
 32
0
 13
77.5964
 23
165.717
 33
0
  0
SOLID
  5
AAA
330
AA3
100
AcDbEntity
  8
0
 62
     0
100
AcDbTrace
 10
93.4217
 20
166.133
 30
0
 11
93.4217
 21
165.3
 31
0
 12
88.4217
 22
165.717
 32
0
 13
88.4217
 23
165.717
 33
0
  0
ENDBLK
  5
AAB
330
AA3
100
AcDbEntity
  8
Dimension019
100
AcDbBlockEnd
  0
ENDSEC
  0
SECTION
  2
ENTITIES
  0
LINE
  5
A08
330
A02
100
AcDbEntity
  8
View001
100
AcDbLine
 10
177.129
 20
80.144
 30
0
 11
116.957
 21
80.144
 31
0
  0
LINE
  5
A09
330
A02
100
AcDbEntity
  8
View001
100
AcDbLine
 10
177.129
 20
86.144
 30
0
 11
177.129
 21
80.144
 31
0
  0
LINE
  5
A0A
330
A02
100
AcDbEntity
  8
View001
100
AcDbLine
 10
177.129
 20
86.144
 30
0
 11
116.957
 21
86.144
 31
0
  0
LINE
  5
A0B
330
A02
100
AcDbEntity
  8
View001
100
AcDbLine
 10
116.957
 20
86.144
 30
0
 11
116.957
 21
80.144
 31
0
  0
DIMENSION
  5
A0C
330
A02
100
AcDbEntity
  8
Dimension008
100
AcDbDimension
  2
*Dimension008
 10
145.404
 20
106.261
 30
0
 11
145.404
 21
101.261
 31
0
 70
32
  1
 mm
  3
STANDARD
100
AcDbAlignedDimension
 13
177.129
 23
86.144
 33
0
 14
116.957
 24
86.144
 34
0
100
AcDbRotatedDimension
  0
DIMENSION
  5
A16
330
A02
100
AcDbEntity
  8
Dimension009
100
AcDbDimension
  2
*Dimension009
 10
197.064
 20
74.5837
 30
0
 11
192.064
 21
74.5837
 31
0
 70
32
  1
 mm
  3
STANDARD
100
AcDbAlignedDimension
 13
177.129
 23
86.144
 33
0
 14
177.129
 24
80.144
 34
0
 50
90
100
AcDbRotatedDimension
  0
LINE
  5
A20
330
A02
100
AcDbEntity
  8
View
100
AcDbLine
 10
11.3646
 20
135.473
 30
0
 11
11.3646
 21
148.173
 31
0
  0
LINE
  5
A21
330
A02
100
AcDbEntity
  8
View
100
AcDbLine
 10
11.3646
 20
148.173
 30
0
 11
32.8646
 21
148.173
 31
0
  0
LINE
  5
A22
330
A02
100
AcDbEntity
  8
View
100
AcDbLine
 10
11.3646
 20
135.473
 30
0
 11
286.365
 21
135.473
 31
0
  0
LINE
  5
A23
330
A02
100
AcDbEntity
  8
View
100
AcDbLine
 10
32.8646
 20
148.173
 30
0
 11
32.8646
 21
141.923
 31
0
  0
LINE
  5
A24
330
A02
100
AcDbEntity
  8
View
100
AcDbLine
 10
286.365
 20
135.473
 30
0
 11
286.365
 21
148.173
 31
0
  0
LINE
  5
A25
330
A02
100
AcDbEntity
  8
View
100
AcDbLine
 10
32.8646
 20
141.923
 30
0
 11
38.1271
 21
141.923
 31
0
  0
LINE
  5
A26
330
A02
100
AcDbEntity
  8
View
100
AcDbLine
 10
267.365
 20
148.173
 30
0
 11
286.365
 21
148.173
 31
0
  0
LINE
  5
A27
330
A02
100
AcDbEntity
  8
View
100
AcDbLine
 10
38.1271
 20
141.923
 30
0
 11
48.9524
 21
148.173
 31
0
  0
LINE
  5
A28
330
A02
100
AcDbEntity
  8
View
100
AcDbLine
 10
267.365
 20
148.173
 30
0
 11
267.365
 21
142.173
 31
0
  0
LINE
  5
A29
330
A02
100
AcDbEntity
  8
View
100
AcDbLine
 10
48.9524
 20
148.173
 30
0
 11
72.3339
 21
148.173
 31
0
  0
LINE
  5
A2A
330
A02
100
AcDbEntity
  8
View
100
AcDbLine
 10
267.365
 20
142.173
 30
0
 11
261.902
 21
142.173
 31
0
  0
LINE
  5
A2B
330
A02
100
AcDbEntity
  8
View
100
AcDbLine
 10
72.3339
 20
148.173
 30
0
 11
72.3339
 21
141.923
 31
0
  0
LINE
  5
A2C
330
A02
100
AcDbEntity
  8
View
100
AcDbLine
 10
261.902
 20
142.173
 30
0
 11
261.902
 21
148.173
 31
0
  0
LINE
  5
A2D
330
A02
100
AcDbEntity
  8
View
100
AcDbLine
 10
72.3339
 20
141.923
 30
0
 11
77.5964
 21
141.923
 31
0
  0
LINE
  5
A2E
330
A02
100
AcDbEntity
  8
View
100
AcDbLine
 10
246.299
 20
148.173
 30
0
 11
261.902
 21
148.173
 31
0
  0
LINE
  5
A2F
330
A02
100
AcDbEntity
  8
View
100
AcDbLine
 10
77.5964
 20
141.923
 30
0
 11
88.4217
 21
148.173
 31
0
  0
LINE
  5
A30
330
A02
100
AcDbEntity
  8
View
100
AcDbLine
 10
235.474
 20
141.923
 30
0
 11
246.299
 21
148.173
 31
0
  0
LINE
  5
A31
330
A02
100
AcDbEntity
  8
View
100
AcDbLine
 10
88.4217
 20
148.173
 30
0
 11
111.803
 21
148.173
 31
0
  0
LINE
  5
A32
330
A02
100
AcDbEntity
  8
View
100
AcDbLine
 10
230.211
 20
141.923
 30
0
 11
235.474
 21
141.923
 31
0
  0
LINE
  5
A33
330
A02
100
AcDbEntity
  8
View
100
AcDbLine
 10
111.803
 20
148.173
 30
0
 11
111.803
 21
141.923
 31
0
  0
LINE
  5
A34
330
A02
100
AcDbEntity
  8
View
100
AcDbLine
 10
230.211
 20
148.173
 30
0
 11
230.211
 21
141.923
 31
0
  0
LINE
  5
A35
330
A02
100
AcDbEntity
  8
View
100
AcDbLine
 10
111.803
 20
141.923
 30
0
 11
117.066
 21
141.923
 31
0
  0
LINE
  5
A36
330
A02
100
AcDbEntity
  8
View
100
AcDbLine
 10
206.83
 20
148.173
 30
0
 11
230.211
 21
148.173
 31
0
  0
LINE
  5
A37
330
A02
100
AcDbEntity
  8
View
100
AcDbLine
 10
117.066
 20
141.923
 30
0
 11
127.891
 21
148.173
 31
0
  0
LINE
  5
A38
330
A02
100
AcDbEntity
  8
View
100
AcDbLine
 10
196.004
 20
141.923
 30
0
 11
206.83
 21
148.173
 31
0
  0
LINE
  5
A39
330
A02
100
AcDbEntity
  8
View
100
AcDbLine
 10
127.891
 20
148.173
 30
0
 11
151.272
 21
148.173
 31
0
  0
LINE
  5
A3A
330
A02
100
AcDbEntity
  8
View
100
AcDbLine
 10
190.742
 20
141.923
 30
0
 11
196.004
 21
141.923
 31
0
  0
LINE
  5
A3B
330
A02
100
AcDbEntity
  8
View
100
AcDbLine
 10
151.272
 20
148.173
 30
0
 11
151.272
 21
141.923
 31
0
  0
LINE
  5
A3C
330
A02
100
AcDbEntity
  8
View
100
AcDbLine
 10
190.742
 20
148.173
 30
0
 11
190.742
 21
141.923
 31
0
  0
LINE
  5
A3D
330
A02
100
AcDbEntity
  8
View
100
AcDbLine
 10
151.272
 20
141.923
 30
0
 11
156.535
 21
141.923
 31
0
  0
LINE
  5
A3E
330
A02
100
AcDbEntity
  8
View
100
AcDbLine
 10
167.36
 20
148.173
 30
0
 11
190.742
 21
148.173
 31
0
  0
LINE
  5
A3F
330
A02
100
AcDbEntity
  8
View
100
AcDbLine
 10
156.535
 20
141.923
 30
0
 11
167.36
 21
148.173
 31
0
  0
CIRCLE
  5
A40
330
A02
100
AcDbEntity
  8
View
100
AcDbCircle
 10
17.9958
 20
141.823
 40
2.38125
  0
CIRCLE
  5
A41
330
A02
100
AcDbEntity
  8
View
100
AcDbCircle
 10
278.865
 20
141.823
 40
2.35
  0
DIMENSION
  5
A42
330
A02
100
AcDbEntity
  8
Dimension
100
AcDbDimension
  2
*Dimension
 10
148.318
 20
114.067
 30
0
 11
148.318
 21
119.067
 31
0
 70
32
  1
 mm
  3
STANDARD
100
AcDbAlignedDimension
 13
11.3646
 23
135.473
 33
0
 14
286.365
 24
135.473
 34
0
100
AcDbRotatedDimension
  0
DIMENSION
  5
A4C
330
A02
100
AcDbEntity
  8
Dimension010
100
AcDbDimension
  2
*Dimension010
 10
22.3469
 20
185.1
 30
0
 11
22.3469
 21
190.1
 31
0
 70
32
  1
 mm
  3
STANDARD
100
AcDbAlignedDimension
 13
11.3646
 23
148.173
 33
0
 14
32.8646
 24
148.173
 34
0
100
AcDbRotatedDimension
  0
DIMENSION
  5
A56
330
A02
100
AcDbEntity
  8
Dimension011
100
AcDbDimension
  2
*Dimension011
 10
275.953
 20
167.053
 30
0
 11
275.953
 21
172.053
 31
0
 70
32
  1
 mm
  3
STANDARD
100
AcDbAlignedDimension
 13
267.365
 23
148.173
 33
0
 14
286.365
 24
148.173
 34
0
100
AcDbRotatedDimension
  0
DIMENSION
  5
A60
330
A02
100
AcDbEntity
  8
Dimension012
100
AcDbDimension
  2
*Dimension012
 10
40.3683
 20
186.35
 30
0
 11
40.3683
 21
181.35
 31
0
 70
32
  1
 mm
  3
STANDARD
100
AcDbAlignedDimension
 13
48.9524
 23
148.173
 33
0
 14
32.8646
 24
148.173
 34
0
100
AcDbRotatedDimension
  0
DIMENSION
  5
A6A
330
A02
100
AcDbEntity
  8
Dimension013
100
AcDbDimension
  2
*Dimension013
 10
252.534
 20
171.053
 30
0
 11
252.534
 21
166.053
 31
0
 70
32
  1
 mm
  3
STANDARD
100
AcDbAlignedDimension
 13
267.365
 23
142.173
 33
0
 14
261.902
 24
142.173
 34
0
100
AcDbRotatedDimension
  0
DIMENSION
  5
A74
330
A02
100
AcDbEntity
  8
Dimension014
100
AcDbDimension
  2
*Dimension014
 10
20.3771
 20
141.823
 30
0
 11
22.901
 21
125.052
 31
0
 70
3
  1
⌀ mm
  3
STANDARD
100
AcDbDiametricDimension
 15
15.6146
 25
141.823
 35
0
 40
0
  0
DIMENSION
  5
A7C
330
A02
100
AcDbEntity
  8
Dimension015
100
AcDbDimension
  2
*Dimension015
 10
281.215
 20
141.823
 30
0
 11
267.719
 21
126.146
 31
0
 70
3
  1
⌀ mm
  3
STANDARD
100
AcDbDiametricDimension
 15
276.515
 25
141.823
 35
0
 40
0
  0
DIMENSION
  5
A84
330
A02
100
AcDbEntity
  8
Dimension016
100
AcDbDimension
  2
*Dimension016
 10
28.85
 20
163.667
 30
0
 11
23.85
 21
163.667
 31
0
 70
32
  1
 mm
  3
STANDARD
100
AcDbAlignedDimension
 13
32.8646
 23
148.173
 33
0
 14
32.8646
 24
141.923
 34
0
 50
90
100
AcDbRotatedDimension
  0
DIMENSION
  5
A8E
330
A02
100
AcDbEntity
  8
Dimension017
100
AcDbDimension
  2
*Dimension017
 10
247.652
 20
156.11
 30
0
 11
252.652
 21
156.11
 31
0
 70
32
  1
 mm
  3
STANDARD
100
AcDbAlignedDimension
 13
261.902
 23
142.173
 33
0
 14
261.902
 24
148.173
 34
0
 50
90
100
AcDbRotatedDimension
  0
DIMENSION
  5
A98
330
A02
100
AcDbEntity
  8
Dimension018
100
AcDbDimension
  2
*Dimension018
 10
88.5047
 20
174.707
 30
0
 11
88.5047
 21
179.707
 31
0
 70
32
  1
 mm
  3
STANDARD
100
AcDbAlignedDimension
 13
72.3339
 23
141.923
 33
0
 14
77.5964
 24
141.923
 34
0
100
AcDbRotatedDimension
  0
DIMENSION
  5
AA2
330
A02
100
AcDbEntity
  8
Dimension019
100
AcDbDimension
  2
*Dimension019
 10
97.4188
 20
165.717
 30
0
 11
99.9188
 21
170.047
 31
0
 70
32
  1
 mm
  3
STANDARD
100
AcDbAlignedDimension
 13
77.5964
 23
141.923
 33
0
 14
88.4217
 24
148.173
 34
0
100
AcDbRotatedDimension
  0
ENDSEC
  0
SECTION
  2
OBJECTS
  0
DICTIONARY
  5
F000
330
0
100
AcDbDictionary
  3
ACAD_GROUP
350
F001
  0
DICTIONARY
  5
F001
330
F000
100
AcDbDictionary
  0
ENDSEC
  0
EOF